<svg width="64" height="34" viewBox="0 0 64 34" fill="none" xmlns="http://www.w3.org/2000/svg">
<path d="M12.9842 21.2062H12.3767L11.9369 22.8196C11.9369 22.84 11.9159 22.8809 11.874 22.8809C11.8321 22.8809 11.8321 22.84 11.8112 22.8196L10.8057 21.3492C10.7429 21.2471 10.6172 21.1858 10.3239 21.1858C10.0097 21.1858 9.77933 21.2879 9.73744 21.4922L9.17188 23.3914H9.77933L10.2192 21.7781C10.2402 21.7372 10.2821 21.7168 10.303 21.7168C10.3239 21.7168 10.3239 21.7168 10.3658 21.7781L11.3713 23.228C11.476 23.3914 11.6645 23.4118 11.8531 23.4118C12.1254 23.4118 12.3767 23.3302 12.4396 23.1055L12.9842 21.2062ZM15.9377 23.3914L16.0215 23.0647H14.241C14.1363 23.0647 14.0734 23.0647 14.0315 23.0442C13.9896 23.0238 13.9896 22.983 13.9896 22.9626L14.1363 22.452H16.1262L16.21 22.1252H14.2201L14.3457 21.676C14.3457 21.6351 14.3667 21.5943 14.4295 21.5738C14.4924 21.5534 14.5552 21.533 14.618 21.533H16.4195L16.5033 21.2062H14.3667C14.241 21.2062 14.0734 21.2062 13.9477 21.2879C13.864 21.3492 13.8011 21.4309 13.7592 21.5126L13.3403 23.0647C13.3193 23.1464 13.2984 23.2485 13.4031 23.3302C13.4869 23.3914 13.6335 23.3914 13.7592 23.3914H15.9377ZM17.5087 21.2062H16.8175L17.4878 23.1872C17.5715 23.4118 17.802 23.4323 17.9695 23.4323C18.3047 23.4323 18.4932 23.2893 18.577 23.1872L20.3365 21.2062H19.6453L18.179 22.9626C18.1581 22.983 18.1371 23.0034 18.0952 23.0034C18.0533 23.0034 18.0324 22.9626 18.0324 22.9626L17.5087 21.2062ZM22.8711 23.3914L22.9549 23.0647H21.1744C21.0697 23.0647 21.0068 23.0647 20.9649 23.0442C20.944 23.0238 20.923 23.0034 20.944 22.9626L21.0906 22.452H23.0806L23.1643 22.1252H21.1744L21.3001 21.676C21.3001 21.6351 21.321 21.5943 21.3839 21.5738C21.4467 21.5534 21.5095 21.533 21.5724 21.533H23.3738L23.4576 21.2062H21.3001C21.1744 21.2062 21.0068 21.2062 20.8811 21.2879C20.7973 21.3492 20.7345 21.4309 20.6926 21.5126L20.2737 23.0647C20.2527 23.1464 20.2318 23.2485 20.3365 23.3302C20.4203 23.3914 20.5669 23.3914 20.6926 23.3914H22.8711ZM23.5833 23.3914H24.2117L24.6935 21.676C24.7144 21.6351 24.7144 21.5943 24.7982 21.5534C24.861 21.5126 24.9029 21.5126 24.9658 21.5126H25.9922C26.0969 21.5126 26.2435 21.5126 26.3273 21.5738C26.3901 21.6147 26.4111 21.6964 26.3692 21.8802C26.3483 21.9619 26.2854 22.1048 26.2016 22.1865C26.0969 22.2682 25.9503 22.2886 25.8246 22.2886H25.1962C25.0077 22.2886 24.9029 22.3499 24.882 22.4316L24.861 22.4724C24.8401 22.5337 24.9239 22.6154 24.9658 22.6562L25.8665 23.371H26.6625L25.5942 22.595V22.5745H26.034C26.4111 22.5745 26.6206 22.452 26.7253 22.3499C26.9138 22.1865 26.9557 22.0231 26.9976 21.8598C27.0395 21.6964 27.0814 21.533 26.9557 21.3696C26.8091 21.1858 26.5368 21.1654 26.2854 21.1654H24.6935C24.5678 21.1654 24.4002 21.1858 24.2745 21.2471C24.1069 21.3288 24.086 21.4513 24.0651 21.533L23.5833 23.3914ZM30.1187 23.3914L30.6423 21.533H31.962L32.0458 21.2062H28.7781L28.6943 21.533H29.993L29.4693 23.3914H30.1187ZM34.2033 21.1858C33.8053 21.1858 33.2397 21.1858 32.7999 21.4105C32.3809 21.6351 32.2553 22.0027 32.1715 22.2886C32.1086 22.5337 31.9829 22.9421 32.3181 23.1668C32.6323 23.3914 33.1979 23.3914 33.5958 23.3914C33.9729 23.3914 34.5594 23.3914 34.9993 23.1668C35.3973 22.9421 35.5439 22.5745 35.6277 22.2886C35.7115 22.0027 35.7743 21.6147 35.4811 21.4105C35.1669 21.1858 34.6013 21.1858 34.2033 21.1858ZM32.8208 22.2886C32.9046 21.9619 33.0303 21.7781 33.1979 21.676C33.4283 21.5126 33.7634 21.4922 34.0986 21.4922C34.4337 21.4922 34.7689 21.5126 34.9155 21.676C34.9993 21.7576 35.0621 21.921 34.9574 22.2886C34.8527 22.6358 34.727 22.8196 34.5803 22.9013C34.329 23.0647 34.0148 23.0851 33.6587 23.0851C33.3026 23.0851 32.9884 23.0647 32.8418 22.9013C32.7789 22.8196 32.7161 22.6562 32.8208 22.2886ZM38.3298 21.1858C37.9318 21.1858 37.3663 21.1858 36.9264 21.4105C36.5075 21.6351 36.3818 22.0027 36.298 22.2886C36.2351 22.5337 36.1095 22.9421 36.4446 23.1668C36.7588 23.3914 37.3244 23.3914 37.7224 23.3914C38.0994 23.3914 38.6859 23.3914 39.1258 23.1668C39.5238 22.9421 39.6704 22.5745 39.7542 22.2886C39.838 22.0027 39.9008 21.6147 39.6076 21.4105C39.2934 21.1858 38.7278 21.1858 38.3298 21.1858ZM36.9473 22.2886C37.0311 21.9619 37.1568 21.7781 37.3244 21.676C37.5548 21.5126 37.8899 21.4922 38.2251 21.4922C38.5602 21.4922 38.8954 21.5126 39.042 21.676C39.1258 21.7576 39.1886 21.921 39.0839 22.2886C38.9792 22.6358 38.8535 22.8196 38.7069 22.9013C38.4555 23.0647 38.1413 23.0851 37.7852 23.0851C37.4291 23.0851 37.1359 23.0647 36.9683 22.9013C36.8845 22.8196 36.8426 22.6562 36.9473 22.2886ZM43.9855 23.3914L44.0692 23.0647H42.2259C42.1212 23.0647 42.1002 23.0442 42.0793 23.0442C42.0374 23.0238 42.0584 22.983 42.0584 22.9421L42.5401 21.2062H41.9117L41.3671 23.1668C41.3462 23.2689 41.3881 23.3302 41.4299 23.3506C41.4928 23.3914 41.6185 23.4118 41.7232 23.4118L43.9855 23.3914ZM44.1949 23.3914H44.8652L45.3679 22.84H46.9809L47.1694 23.3914H47.8397L47.1275 21.4105C47.0646 21.2267 46.939 21.1654 46.6457 21.1654C46.3524 21.1654 46.2058 21.2267 46.0173 21.4105L44.1949 23.3914ZM46.3943 21.6555C46.4153 21.6147 46.4781 21.5738 46.52 21.5738C46.5619 21.5738 46.5829 21.6351 46.5829 21.6555L46.8761 22.5541H45.5984L46.3943 21.6555ZM49.3688 23.3914L49.8925 21.533H51.2121L51.2959 21.2062H48.0491L47.9654 21.533H49.264L48.7404 23.3914H49.3688ZM53.9142 23.3914L53.998 23.0647H52.2176C52.1128 23.0647 52.05 23.0647 52.0081 23.0442C51.9871 23.0238 51.9662 23.0034 51.9871 22.9626L52.1338 22.452H54.1237L54.2075 22.1252H52.2176L52.3432 21.676C52.3432 21.6351 52.3642 21.5943 52.427 21.5738C52.4899 21.5534 52.5527 21.533 52.6155 21.533H54.417L54.5008 21.2062H52.3432C52.2176 21.2062 52.05 21.2062 51.9243 21.2879C51.8405 21.3492 51.7777 21.4309 51.7358 21.5126L51.3168 23.0647C51.2959 23.1464 51.2749 23.2485 51.3797 23.3302C51.4635 23.3914 51.6101 23.3914 51.7358 23.3914H53.9142Z" fill="white"/>
<path d="M29.1341 12.9558C32.1923 11.8939 39.8798 11.9143 40.5082 12.8537C41.0109 13.6297 40.3825 15.4882 39.0629 15.6515C36.4445 15.9987 34.685 16.2029 32.1714 16.5705C31.7524 16.6318 31.3754 17.5916 31.7734 17.6121C33.9518 17.6121 36.1512 17.6121 38.3297 17.6121C39.1466 17.6121 39.8798 18.2247 40.0264 18.8987H27.6887C27.0184 18.8782 27.6887 15.8966 29.3226 15.672C31.8781 15.3248 33.7214 15.1001 36.1722 14.7734C36.7587 14.6917 37.1567 13.5276 36.6749 13.5276C34.3498 13.5276 32.4646 13.5276 29.7625 13.5889C29.4692 13.5276 29.2598 13.2621 29.1341 12.9558Z" fill="white"/>
<path d="M16.8383 17.8367C15.6234 18.7965 9.86305 19.6338 9.54885 17.8571C9.27654 16.4071 10.1773 14.467 11.3922 13.1192C12.6071 11.7713 15.8957 12.1389 17.5296 12.7311C19.5824 13.4663 19.9175 15.3656 21.5304 16.8156C22.0541 17.2853 22.3264 17.4282 22.7034 16.9177C23.4785 15.8353 25.0704 13.3642 23.3318 13.4868C22.3264 13.548 21.7608 13.8135 20.8392 14.0382C20.6088 14.0994 20.3574 13.6501 20.1689 13.3846C21.698 12.0164 27.1442 11.4854 27.4793 13.2621C27.7516 14.7121 26.8509 16.6522 25.636 18C24.4211 19.3479 21.1324 18.9803 19.4986 18.3881C17.739 17.755 16.985 15.8966 15.8329 14.6508C15.1626 13.9156 14.7646 13.5684 14.3038 14.2015C13.5287 15.2635 11.9996 17.6733 13.7382 17.612C14.7227 17.5712 15.1626 17.4078 16.2099 17.1627C16.4822 17.1627 16.6498 17.5099 16.8383 17.8367Z" fill="white"/>
<path d="M46.2478 12.4043L44.9282 16.8768C44.8234 17.2444 45.0957 17.612 45.4937 17.612C48.0702 17.612 50.123 17.612 52.7204 17.612C53.9143 17.6324 54.7522 18.388 54.8569 18.8985H43.0848C41.8909 18.8985 41.0321 17.7958 41.3672 16.693L42.4145 13.1803C42.624 12.486 42.8963 12.3022 43.6085 12.2614C44.3416 12.2409 45.5566 12.3226 46.2478 12.4043Z" fill="white"/>
<path d="M10.8896 16.7339C10.8687 16.7339 10.8687 16.7135 10.8687 16.7135C10.8896 16.6727 10.9105 16.6318 10.9315 16.591C11.0362 16.3867 11.1829 16.1621 11.3085 15.9579C11.4971 15.672 11.7065 15.3861 11.916 15.1206C12.1255 14.8551 12.3559 14.5692 12.5863 14.3037C12.7958 14.0586 13.0052 13.834 13.2356 13.6093C13.2985 13.5481 13.3404 13.4868 13.4032 13.446L13.4242 13.4255V13.446C13.3613 13.5481 13.2775 13.6298 13.2147 13.7319C13.11 13.8544 13.0262 13.9769 12.9214 14.0995C12.7329 14.3445 12.5234 14.5896 12.3349 14.8142C12.1464 15.0593 11.9579 15.3044 11.7694 15.5494C11.6018 15.7741 11.4552 15.9783 11.2876 16.2029C11.1829 16.3459 11.0781 16.4889 10.9734 16.6318C10.9315 16.6931 10.9105 16.7135 10.8896 16.7339Z" fill="black"/>
<path d="M11.0996 17.2445C11.0786 17.2445 11.0786 17.2445 11.0996 17.2445C11.0786 17.224 11.0996 17.2036 11.0996 17.1832C11.1624 17.0402 11.2462 16.8973 11.309 16.7748C11.4138 16.591 11.5395 16.4072 11.6651 16.2234C11.707 16.1621 11.7699 16.1008 11.8118 16.0191C11.8746 15.917 11.9584 15.8353 12.0212 15.7332C12.0631 15.672 12.105 15.6107 12.1469 15.5698C12.2098 15.5086 12.2726 15.4269 12.3354 15.3656C12.524 15.141 12.7125 14.9368 12.901 14.7325C12.9638 14.6713 13.0267 14.5896 13.1105 14.5487L13.1314 14.5283C13.1524 14.5283 13.1314 14.5487 13.1314 14.5692C13.0057 14.753 12.8591 14.9368 12.7125 15.1001C12.524 15.3248 12.3564 15.5494 12.1679 15.7741C12.0422 15.9374 11.9165 16.1008 11.7908 16.2642C11.6861 16.3867 11.6023 16.5297 11.4976 16.6522C11.4557 16.6931 11.4347 16.7339 11.3928 16.7748C11.3509 16.836 11.309 16.8973 11.2881 16.9381C11.2253 17.0198 11.1624 17.1219 11.0996 17.2036C11.0996 17.224 11.0996 17.2445 11.0996 17.2445Z" fill="black"/>
<path d="M12.8375 13.5073C12.5861 13.8341 12.3348 14.1404 12.1044 14.4672C12.2929 14.0996 12.5652 13.7932 12.8375 13.5073Z" fill="black"/>
<path d="M12.7328 15.7129C12.5024 16.0396 12.2301 16.346 12.0206 16.6523C12.2092 16.3051 12.4605 15.9988 12.7328 15.7129Z" fill="black"/>
</svg>
