<svg width="561" height="531" viewBox="0 0 561 531" fill="none" xmlns="http://www.w3.org/2000/svg">
<circle opacity="0.5" cx="320.528" cy="571.431" r="199.434" stroke="#E5E7EA"/>
<g filter="url(#filter0_dddd_126_12773)">
<circle cx="11.4754" cy="11.4754" r="11.4754" transform="matrix(0.965926 -0.258819 -0.258819 -0.965926 333.309 359.109)" fill="url(#paint0_linear_126_12773)"/>
</g>
<rect width="19.7105" height="19.7105" rx="9.85525" transform="matrix(0.965926 -0.258819 -0.258819 -0.965926 471.294 459.375)" fill="#D9D9D9"/>
<rect width="19.7105" height="19.7105" rx="9.85525" transform="matrix(0.965926 -0.258819 -0.258819 -0.965926 471.294 459.375)" fill="url(#paint1_linear_126_12773)"/>
<rect width="77.8963" height="77.8963" rx="38.9481" transform="matrix(0.965926 -0.258819 -0.258819 -0.965926 232.161 434.403)" fill="#D9D9D9"/>
<rect width="77.8963" height="77.8963" rx="38.9481" transform="matrix(0.965926 -0.258819 -0.258819 -0.965926 232.161 434.403)" fill="url(#paint2_linear_126_12773)"/>
<rect width="10.2883" height="10.2883" rx="5.14413" transform="matrix(0.965926 -0.258819 -0.258819 -0.965926 222.817 50.8594)" fill="#D9D9D9"/>
<rect width="10.2883" height="10.2883" rx="5.14413" transform="matrix(0.965926 -0.258819 -0.258819 -0.965926 222.817 50.8594)" fill="url(#paint3_linear_126_12773)"/>
<path d="M144.582 487.356C146.03 490.173 150.021 490.27 151.604 487.528L160.891 471.442C162.474 468.7 160.394 465.292 157.231 465.447L140.108 466.284C137.204 466.426 135.416 469.522 136.746 472.108L144.582 487.356Z" fill="#D9D9D9"/>
<path d="M144.582 487.356C146.03 490.173 150.021 490.27 151.604 487.528L160.891 471.442C162.474 468.7 160.394 465.292 157.231 465.447L140.108 466.284C137.204 466.426 135.416 469.522 136.746 472.108L144.582 487.356Z" fill="url(#paint4_linear_126_12773)"/>
<defs>
<filter id="filter0_dddd_126_12773" x="324.945" y="332.576" width="32.9565" height="42.9564" filterUnits="userSpaceOnUse" color-interpolation-filters="sRGB">
<feFlood flood-opacity="0" result="BackgroundImageFix"/>
<feColorMatrix in="SourceAlpha" type="matrix" values="0 0 0 0 0 0 0 0 0 0 0 0 0 0 0 0 0 0 127 0" result="hardAlpha"/>
<feOffset dy="1"/>
<feGaussianBlur stdDeviation="1"/>
<feColorMatrix type="matrix" values="0 0 0 0 0.780392 0 0 0 0 0.780392 0 0 0 0 0.780392 0 0 0 0.1 0"/>
<feBlend mode="normal" in2="BackgroundImageFix" result="effect1_dropShadow_126_12773"/>
<feColorMatrix in="SourceAlpha" type="matrix" values="0 0 0 0 0 0 0 0 0 0 0 0 0 0 0 0 0 0 127 0" result="hardAlpha"/>
<feOffset dy="3"/>
<feGaussianBlur stdDeviation="1.5"/>
<feColorMatrix type="matrix" values="0 0 0 0 0.780392 0 0 0 0 0.780392 0 0 0 0 0.780392 0 0 0 0.09 0"/>
<feBlend mode="normal" in2="effect1_dropShadow_126_12773" result="effect2_dropShadow_126_12773"/>
<feColorMatrix in="SourceAlpha" type="matrix" values="0 0 0 0 0 0 0 0 0 0 0 0 0 0 0 0 0 0 127 0" result="hardAlpha"/>
<feOffset dy="8"/>
<feGaussianBlur stdDeviation="2.5"/>
<feColorMatrix type="matrix" values="0 0 0 0 0.780392 0 0 0 0 0.780392 0 0 0 0 0.780392 0 0 0 0.05 0"/>
<feBlend mode="normal" in2="effect2_dropShadow_126_12773" result="effect3_dropShadow_126_12773"/>
<feColorMatrix in="SourceAlpha" type="matrix" values="0 0 0 0 0 0 0 0 0 0 0 0 0 0 0 0 0 0 127 0" result="hardAlpha"/>
<feOffset dy="14"/>
<feGaussianBlur stdDeviation="2.5"/>
<feColorMatrix type="matrix" values="0 0 0 0 0.780392 0 0 0 0 0.780392 0 0 0 0 0.780392 0 0 0 0.01 0"/>
<feBlend mode="normal" in2="effect3_dropShadow_126_12773" result="effect4_dropShadow_126_12773"/>
<feBlend mode="normal" in="SourceGraphic" in2="effect4_dropShadow_126_12773" result="shape"/>
</filter>
<linearGradient id="paint0_linear_126_12773" x1="11.4754" y1="0" x2="11.4754" y2="22.9508" gradientUnits="userSpaceOnUse">
<stop stop-color="#00A19B"/>
<stop offset="1" stop-color="#75F8F3"/>
</linearGradient>
<linearGradient id="paint1_linear_126_12773" x1="9.85525" y1="0" x2="9.85525" y2="19.7105" gradientUnits="userSpaceOnUse">
<stop stop-color="#00A19B"/>
<stop offset="1" stop-color="#75F8F3"/>
</linearGradient>
<linearGradient id="paint2_linear_126_12773" x1="38.9481" y1="0" x2="38.9481" y2="77.8963" gradientUnits="userSpaceOnUse">
<stop stop-color="#00A19B"/>
<stop offset="1" stop-color="#75F8F3"/>
</linearGradient>
<linearGradient id="paint3_linear_126_12773" x1="5.14413" y1="0" x2="5.14413" y2="10.2883" gradientUnits="userSpaceOnUse">
<stop stop-color="#00A19B"/>
<stop offset="1" stop-color="#75F8F3"/>
</linearGradient>
<linearGradient id="paint4_linear_126_12773" x1="156.247" y1="479.485" x2="127.455" y2="462.862" gradientUnits="userSpaceOnUse">
<stop stop-color="#00A19B"/>
<stop offset="1" stop-color="#75F8F3"/>
</linearGradient>
</defs>
</svg>
