<svg width="20" height="20" viewBox="0 0 20 20" fill="none" xmlns="http://www.w3.org/2000/svg">
<path d="M5.83333 13.0208H8.75M11.4583 8.43746H14.375M11.4583 6.35413H14.375M5.625 7.39579H7.29167M7.29167 7.39579H8.95833M7.29167 7.39579V5.72913M7.29167 7.39579V9.06246M11.7501 14.2708L12.9287 13.0922M12.9287 13.0922L14.1071 11.9138M12.9287 13.0922L11.7501 11.9136M12.9287 13.0922L14.1071 14.2706" stroke="#454C52" stroke-width="1.5" stroke-linecap="round" stroke-linejoin="round"/>
<path d="M2.5 7.83333C2.5 5.96649 2.5 5.03307 2.86331 4.32003C3.18289 3.69282 3.69282 3.18289 4.32003 2.86331C5.03307 2.5 5.96649 2.5 7.83333 2.5H12.1667C14.0335 2.5 14.9669 2.5 15.68 2.86331C16.3072 3.18289 16.8171 3.69282 17.1367 4.32003C17.5 5.03307 17.5 5.96649 17.5 7.83333V12.1667C17.5 14.0335 17.5 14.9669 17.1367 15.68C16.8171 16.3072 16.3072 16.8171 15.68 17.1367C14.9669 17.5 14.0335 17.5 12.1667 17.5H7.83333C5.96649 17.5 5.03307 17.5 4.32003 17.1367C3.69282 16.8171 3.18289 16.3072 2.86331 15.68C2.5 14.9669 2.5 14.0335 2.5 12.1667V7.83333Z" stroke="#454C52" stroke-width="1.5" stroke-linecap="round" stroke-linejoin="round"/>
</svg>
