<svg width="20" height="20" viewBox="0 0 20 20" fill="none" xmlns="http://www.w3.org/2000/svg">
<path d="M13.0002 12.1012C11.0044 14.2018 5.91342 9.15653 7.91687 7.04795C9.14009 5.76052 7.75827 4.28923 6.99341 3.20778C5.55794 1.17815 2.40667 3.98034 2.50238 5.76287C2.80418 11.384 8.88486 18.0455 14.7732 17.4645C16.6153 17.2827 18.7318 13.956 16.6189 12.7402C15.5623 12.1322 14.1121 10.931 13.0002 12.1012Z" stroke="#454C52" stroke-width="1.5" stroke-linecap="round" stroke-linejoin="round"/>
<path d="M11.6667 2.5C13.2138 2.5 14.6976 3.11458 15.7915 4.20854C16.8855 5.30251 17.5001 6.78624 17.5001 8.33333" stroke="#454C52" stroke-width="1.5" stroke-linecap="round" stroke-linejoin="round"/>
<path d="M11.6667 5.83337C12.3298 5.83337 12.9657 6.09677 13.4345 6.56561C13.9034 7.03445 14.1667 7.67033 14.1667 8.33337" stroke="#454C52" stroke-width="1.5" stroke-linecap="round" stroke-linejoin="round"/>
</svg>
