<svg width="24" height="24" viewBox="0 0 24 24" fill="none" xmlns="http://www.w3.org/2000/svg">
<path d="M21.6001 12.0001C21.5993 6.89334 17.6007 2.68106 12.5009 2.41465C7.40114 2.14823 2.98539 5.92095 2.45249 10.9998C1.9196 16.0786 5.45609 20.6857 10.5001 21.4837L10.5001 14.7751H8.06288V12.0001H10.5001V9.88506C10.5001 7.47906 11.9335 6.15006 14.1259 6.15006C14.8459 6.16005 15.5642 6.22261 16.2751 6.33726V8.70006H15.0643C14.6463 8.64455 14.2258 8.78214 13.9215 9.07396C13.6172 9.36578 13.4621 9.78015 13.5001 10.2001V12.0001H16.1629L15.7369 14.7751H13.5001L13.5001 21.4837C18.1655 20.7456 21.6008 16.7235 21.6001 12.0001Z" fill="#9EA5AD"/>
</svg>
