<svg width="144" height="24" viewBox="0 0 144 24" fill="none" xmlns="http://www.w3.org/2000/svg">
<path d="M21.6001 6.05995C20.8801 6.35995 20.1601 6.59995 19.3201 6.65995C20.1601 6.17995 20.7601 5.39995 21.0601 4.49995C20.2801 4.97995 19.4401 5.27995 18.5401 5.45995C17.8201 4.67995 16.8001 4.19995 15.7201 4.19995C13.5601 4.19995 11.7601 5.93995 11.7601 8.15995C11.7601 8.45995 11.8201 8.75995 11.8801 9.05995C8.58009 8.87995 5.70009 7.31995 3.72009 4.91995C3.36009 5.51995 3.18009 6.17995 3.18009 6.89995C3.18009 8.27995 3.90009 9.47995 4.92009 10.2C4.26009 10.2 3.66009 10.02 3.12009 9.71995V9.77995C3.12009 11.7 4.50009 13.26 6.30009 13.62C5.94009 13.68 5.64009 13.74 5.28009 13.74C5.04009 13.74 4.80009 13.74 4.56009 13.68C5.04009 15.24 6.54009 16.38 8.22009 16.44C6.90009 17.52 5.16009 18.12 3.30009 18.12C3.00009 18.12 2.64009 18.12 2.34009 18.06C4.14009 19.14 6.24009 19.8 8.46009 19.8C15.7201 19.8 19.6801 13.8 19.6801 8.57995C19.6801 8.39995 19.6801 8.21995 19.6801 8.09995C20.4001 7.49995 21.0601 6.83995 21.6001 6.05995Z" fill="#9EA5AD"/>
<path d="M61.6001 12.0001C61.5993 6.89334 57.6007 2.68106 52.5009 2.41465C47.4011 2.14823 42.9854 5.92095 42.4525 10.9998C41.9196 16.0786 45.4561 20.6857 50.5001 21.4837L50.5001 14.7751H48.0629V12.0001H50.5001V9.88506C50.5001 7.47906 51.9335 6.15006 54.1259 6.15006C54.8459 6.16005 55.5642 6.22261 56.2751 6.33726V8.70006H55.0643C54.6463 8.64455 54.2258 8.78214 53.9215 9.07396C53.6172 9.36578 53.4621 9.78015 53.5001 10.2001V12.0001H56.1629L55.7369 14.7751H53.5001L53.5001 21.4837C58.1655 20.7456 61.6008 16.7235 61.6001 12.0001Z" fill="#9EA5AD"/>
<path d="M99.8 3L84.2 3C83.5373 3 83 3.53726 83 4.2V19.8C83 20.4627 83.5373 21 84.2 21L99.8 21C100.463 21 101 20.4627 101 19.8V4.2C101 3.53726 100.463 3 99.8 3ZM88.3322 18.3564H85.6244V9.75H88.3322V18.3564ZM86.978 8.5686C86.1088 8.56595 85.406 7.85963 85.4078 6.99041C85.4096 6.12119 86.1152 5.41773 86.9844 5.41861C87.8536 5.41949 88.5578 6.12438 88.5578 6.9936C88.558 7.4122 88.3914 7.81363 88.095 8.10917C87.7985 8.40471 87.3966 8.57004 86.978 8.5686ZM98.3726 18.3564H95.72V14.1936C95.72 13.1814 95.72 11.9436 94.31 11.9436C92.9 11.9436 92.7302 13.0128 92.7302 14.1372V18.4128H90.08V9.75L92.5616 9.75V10.9314H92.618C93.1395 10.0297 94.1156 9.48898 95.1566 9.525C97.8644 9.525 98.372 11.325 98.372 13.6314L98.3726 18.3564Z" fill="#9EA5AD"/>
<path d="M141.42 8.15997C141.42 8.15997 141.24 6.83997 140.64 6.23997C139.92 5.45997 139.08 5.45997 138.72 5.39997C136.02 5.21997 132 5.21997 132 5.21997C132 5.21997 127.98 5.21997 125.28 5.39997C124.92 5.45997 124.08 5.45997 123.36 6.23997C122.76 6.83997 122.58 8.15997 122.58 8.15997C122.58 8.15997 122.4 9.71997 122.4 11.28V12.72C122.4 14.28 122.58 15.84 122.58 15.84C122.58 15.84 122.76 17.16 123.36 17.76C124.08 18.54 125.04 18.48 125.46 18.6C127.02 18.72 132 18.78 132 18.78C132 18.78 136.02 18.78 138.72 18.6C139.08 18.54 139.92 18.54 140.64 17.76C141.24 17.16 141.42 15.84 141.42 15.84C141.42 15.84 141.6 14.28 141.6 12.72V11.28C141.6 9.71997 141.42 8.15997 141.42 8.15997ZM130.02 14.52V9.11997L135.18 11.82L130.02 14.52Z" fill="#9EA5AD"/>
</svg>
