<svg width="20" height="20" viewBox="0 0 20 20" fill="none" xmlns="http://www.w3.org/2000/svg">
<path d="M10.7117 2.91722C10.4052 2.36093 9.59479 2.36093 9.28829 2.91722C9.12132 3.22027 8.96113 3.52737 8.80791 3.83835C8.32541 4.81762 7.91205 5.83527 7.57399 6.88531C7.45835 7.2445 7.11474 7.49396 6.72147 7.5044C5.79342 7.52904 4.86705 7.6054 3.94845 7.73505C3.68609 7.77207 3.42513 7.81329 3.16565 7.85863C2.52043 7.97135 2.27832 8.70701 2.7365 9.15534C2.84101 9.2576 2.94642 9.35902 3.05269 9.45956C3.84741 10.2114 4.69098 10.9149 5.57836 11.5649C5.88442 11.7891 6.01024 12.1737 5.89326 12.5248C5.52678 13.6246 5.24315 14.7608 5.04953 15.9263C5.0107 16.1601 4.97549 16.395 4.94395 16.631C4.85994 17.2599 5.53374 17.704 6.11858 17.4042C6.32734 17.2972 6.53426 17.1872 6.73927 17.0744C7.67988 16.5566 8.58041 15.978 9.43521 15.344C9.76697 15.0979 10.233 15.0979 10.5648 15.344C11.4196 15.978 12.3201 16.5566 13.2607 17.0744C13.4657 17.1872 13.6727 17.2972 13.8814 17.4042C14.4663 17.704 15.1401 17.2599 15.056 16.631C15.0245 16.395 14.9893 16.1601 14.9505 15.9263C14.7569 14.7608 14.4732 13.6246 14.1067 12.5248C13.9898 12.1737 14.1156 11.7891 14.4216 11.5649C15.309 10.9149 16.1526 10.2114 16.9473 9.45956C17.0536 9.35902 17.159 9.2576 17.2635 9.15534C17.7217 8.70701 17.4796 7.97135 16.8344 7.85863C16.5749 7.81329 16.3139 7.77207 16.0516 7.73505C15.1329 7.6054 14.2066 7.52904 13.2785 7.5044C12.8853 7.49396 12.5417 7.24449 12.426 6.88531C12.0879 5.83527 11.6746 4.81762 11.1921 3.83835C11.0389 3.52737 10.8787 3.22027 10.7117 2.91722Z" stroke="#454C52" stroke-width="1.5" stroke-linecap="round" stroke-linejoin="round"/>
</svg>
