<svg width="21" height="21" viewBox="0 0 21 21" fill="none" xmlns="http://www.w3.org/2000/svg">
<path d="M9.66675 14.6667L11.3334 16.3333C11.4976 16.4975 11.6924 16.6277 11.9069 16.7165C12.1214 16.8054 12.3513 16.8511 12.5834 16.8511C12.8156 16.8511 13.0454 16.8054 13.2599 16.7165C13.4744 16.6277 13.6693 16.4975 13.8334 16.3333C13.9976 16.1692 14.1278 15.9743 14.2166 15.7598C14.3055 15.5454 14.3512 15.3155 14.3512 15.0833C14.3512 14.8512 14.3055 14.6213 14.2166 14.4068C14.1278 14.1924 13.9976 13.9975 13.8334 13.8333M12.1667 12.1667L14.2501 14.25C14.5816 14.5815 15.0312 14.7678 15.5001 14.7678C15.9689 14.7678 16.4185 14.5815 16.7501 14.25C17.0816 13.9185 17.2678 13.4689 17.2678 13C17.2678 12.5312 17.0816 12.0815 16.7501 11.75L13.5167 8.51669C13.048 8.04852 12.4126 7.78556 11.7501 7.78556C11.0876 7.78556 10.4522 8.04852 9.9834 8.51669L9.25007 9.25002C8.91855 9.58154 8.46891 9.76779 8.00007 9.76779C7.53123 9.76779 7.08159 9.58154 6.75007 9.25002C6.41855 8.9185 6.2323 8.46886 6.2323 8.00002C6.2323 7.53118 6.41855 7.08154 6.75007 6.75002L9.09173 4.40836C9.85193 3.65014 10.8433 3.16715 11.9089 3.03583C12.9746 2.90452 14.0535 3.13238 14.9751 3.68336L15.3667 3.91669C15.7216 4.13085 16.1434 4.20512 16.5501 4.12502L18.0001 3.83336M18.0001 3.00001L18.8334 12.1667H17.1667M3.00008 3.00001L2.16675 12.1667L7.58341 17.5833C7.91494 17.9149 8.36457 18.1011 8.83341 18.1011C9.30226 18.1011 9.75189 17.9149 10.0834 17.5833C10.4149 17.2518 10.6012 16.8022 10.6012 16.3333C10.6012 15.8645 10.4149 15.4149 10.0834 15.0833M3.00008 3.83334H9.66675" stroke="#00A19B" stroke-width="1.5" stroke-linecap="round" stroke-linejoin="round"/>
</svg>
