<svg width="21" height="21" viewBox="0 0 21 21" fill="none" xmlns="http://www.w3.org/2000/svg">
<path d="M14.6667 8L10.1381 12.5286C9.97306 12.6936 9.89056 12.7761 9.79542 12.807C9.71174 12.8342 9.62159 12.8342 9.53791 12.807C9.44277 12.7761 9.36027 12.6936 9.19526 12.5286L7.63807 10.9714C7.47306 10.8064 7.39056 10.7239 7.29542 10.693C7.21174 10.6658 7.12159 10.6658 7.03791 10.693C6.94277 10.7239 6.86027 10.8064 6.69526 10.9714L3 14.6667M14.6667 8H11.3333M14.6667 8V11.3333M7 18H14C15.4001 18 16.1002 18 16.635 17.7275C17.1054 17.4878 17.4878 17.1054 17.7275 16.635C18 16.1002 18 15.4001 18 14V7C18 5.59987 18 4.8998 17.7275 4.36502C17.4878 3.89462 17.1054 3.51217 16.635 3.27248C16.1002 3 15.4001 3 14 3H7C5.59987 3 4.8998 3 4.36502 3.27248C3.89462 3.51217 3.51217 3.89462 3.27248 4.36502C3 4.8998 3 5.59987 3 7V14C3 15.4001 3 16.1002 3.27248 16.635C3.51217 17.1054 3.89462 17.4878 4.36502 17.7275C4.8998 18 5.59987 18 7 18Z" stroke="#00A19B" stroke-width="1.5" stroke-linecap="round" stroke-linejoin="round"/>
</svg>
