<svg width="21" height="21" viewBox="0 0 21 21" fill="none" xmlns="http://www.w3.org/2000/svg">
<path d="M13.8334 15.5L15.5001 17.1667L18.8334 13.8333M18.8334 8.83332H2.16675M18.8334 10.5V7.33332C18.8334 6.3999 18.8334 5.93319 18.6518 5.57667C18.492 5.26307 18.237 5.0081 17.9234 4.84831C17.5669 4.66666 17.1002 4.66666 16.1667 4.66666H4.83342C3.89999 4.66666 3.43328 4.66666 3.07676 4.84831C2.76316 5.0081 2.50819 5.26307 2.3484 5.57667C2.16675 5.93319 2.16675 6.3999 2.16675 7.33332V13.6667C2.16675 14.6001 2.16675 15.0668 2.3484 15.4233C2.50819 15.7369 2.76316 15.9919 3.07676 16.1517C3.43328 16.3333 3.89999 16.3333 4.83341 16.3333H10.5001" stroke="#00A19B" stroke-width="1.5" stroke-linecap="round" stroke-linejoin="round"/>
</svg>
