<svg width="20" height="21" viewBox="0 0 20 21" fill="none" xmlns="http://www.w3.org/2000/svg">
<path d="M12.9546 8.77115C13.2662 8.21749 13.526 7.71789 13.6863 7.33764C14.4644 5.49118 13.695 3.36727 11.8141 2.5009C9.93318 1.63452 8.04446 2.53287 7.21555 4.2674C5.63043 3.17971 3.51594 3.33945 2.34986 5.03682C1.18379 6.73419 1.54975 8.95165 3.14687 10.1617C3.87171 10.7108 5.30526 11.5201 6.65492 12.2403M13.5809 10.2916C13.2292 8.40162 11.6211 7.01941 9.59632 7.39509C7.57156 7.77077 6.26236 9.59753 6.53608 11.5825C6.756 13.1772 7.96989 16.9189 8.43863 18.3283C8.50259 18.5206 8.53458 18.6168 8.5979 18.6838C8.65306 18.7422 8.72641 18.7846 8.80458 18.8032C8.89431 18.8245 8.99358 18.8041 9.19212 18.7633C10.6471 18.4646 14.4944 17.645 15.9854 17.0381C17.8413 16.2826 18.7991 14.2367 18.0817 12.2941C17.3643 10.3515 15.3936 9.65122 13.5809 10.2916Z" stroke="#00A19B" stroke-width="1.5" stroke-linecap="round" stroke-linejoin="round"/>
</svg>
