<svg width="20" height="20" viewBox="0 0 20 20" fill="none" xmlns="http://www.w3.org/2000/svg">
<path d="M16.6633 8.85093V15.8333C16.6633 16.7538 15.9175 17.5 14.9974 17.5H5.00255C4.08255 17.5 3.33674 16.7538 3.33674 15.8333V8.85093M6.25191 7.29167L6.66837 2.5M6.25191 7.29167C6.25191 9.70984 10 9.70984 10 7.29167M6.25191 7.29167C6.25191 9.93815 1.95613 9.39225 2.55777 7.08478L3.42832 3.74596C3.61967 3.01208 4.28214 2.5 5.04019 2.5H14.9598C15.7179 2.5 16.3803 3.01208 16.5717 3.74596L17.4422 7.08478C18.0439 9.39225 13.7481 9.93815 13.7481 7.29167M10 7.29167V2.5M10 7.29167C10 9.70984 13.7481 9.70984 13.7481 7.29167M13.7481 7.29167L13.3316 2.5" stroke="white" stroke-width="1.5" stroke-linecap="round" stroke-linejoin="round"/>
</svg>
